<svg width="2258" height="2258" viewBox="0 0 2258 2258" fill="none" xmlns="http://www.w3.org/2000/svg">
<g clip-path="url(#clip0_1_2)">
<mask id="path-1-inside-1_1_2" fill="white">
<rect x="299" y="299" width="1660" height="1660" rx="90"/>
</mask>
<rect x="299" y="299" width="1660" height="1660" rx="90" stroke="#368DA5" stroke-width="320" mask="url(#path-1-inside-1_1_2)"/>
<path d="M776 1084.5C819.5 1050.17 953.097 1002.71 1080 1088.5C1222 1184.5 1393.5 1111 1478 1079.5L1518 1273L1384.5 1538L1104 1620.5L830.5 1489.5L740 1246.5L776 1084.5ZM1109 1310C1058.74 1310 1018 1350.74 1018 1401C1018 1451.26 1058.74 1492 1109 1492C1159.26 1492 1200 1451.26 1200 1401C1200 1350.74 1159.26 1310 1109 1310ZM1316.5 1237C1284.19 1237 1258 1263.19 1258 1295.5C1258 1327.81 1284.19 1354 1316.5 1354C1348.81 1354 1375 1327.81 1375 1295.5C1375 1263.19 1348.81 1237 1316.5 1237ZM996.5 1111C964.191 1111 938 1137.19 938 1169.5C938 1201.81 964.191 1228 996.5 1228C1028.81 1228 1055 1201.81 1055 1169.5C1055 1137.19 1028.81 1111 996.5 1111Z" fill="#368DA5"/>
<rect x="934" y="570" width="101" height="236" rx="10" fill="#368DA5"/>
<rect x="873" y="570" width="105" height="100" rx="10" fill="#368DA5"/>
<rect width="101" height="236" rx="10" transform="matrix(-1 0 0 1 1324 570)" fill="#368DA5"/>
<rect width="105" height="100" rx="10" transform="matrix(-1 0 0 1 1385 570)" fill="#368DA5"/>
<mask id="mask0_1_2" style="mask-type:alpha" maskUnits="userSpaceOnUse" x="668" y="715" width="922" height="973">
<rect x="1223" y="715" width="367" height="973" fill="#D9D9D9"/>
<rect x="668" y="715" width="367" height="973" fill="#D9D9D9"/>
<rect x="668" y="1688" width="345" height="922" transform="rotate(-90 668 1688)" fill="#D9D9D9"/>
</mask>
<g mask="url(#mask0_1_2)">
<path d="M1129 789C1354.64 789 1540 977.671 1540 1213.46C1540 1449.25 1354.64 1637.92 1129 1637.92C903.358 1637.92 718 1449.25 718 1213.46C718 977.671 903.358 789 1129 789Z" stroke="#368DA5" stroke-width="100"/>
</g>
<path d="M711 2178C711 2222.18 675.183 2258 631 2258C586.817 2258 551 2222.18 551 2178V1959H711V2178ZM1043 2178C1043 2222.18 1007.18 2258 963 2258C918.817 2258 883 2222.18 883 2178V1959H1043V2178ZM1375 2178C1375 2222.18 1339.18 2258 1295 2258C1250.82 2258 1215 2222.18 1215 2178V1959H1375V2178ZM1707 2178C1707 2222.18 1671.18 2258 1627 2258C1582.82 2258 1547 2222.18 1547 2178V1959H1707V2178ZM2178 1547C2222.18 1547 2258 1582.82 2258 1627C2258 1671.18 2222.18 1707 2178 1707H1959V1547H2178ZM299 1707H80C35.8172 1707 0 1671.18 0 1627C0 1582.82 35.8172 1547 80 1547H299V1707ZM2178 1215C2222.18 1215 2258 1250.82 2258 1295C2258 1339.18 2222.18 1375 2178 1375H1959V1215H2178ZM299 1375H80C35.8172 1375 0 1339.18 0 1295C0 1250.82 35.8172 1215 80 1215H299V1375ZM2178 883C2222.18 883 2258 918.817 2258 963C2258 1007.18 2222.18 1043 2178 1043H1959V883H2178ZM299 1043H80C35.8172 1043 0 1007.18 0 963C0 918.817 35.8172 883 80 883H299V1043ZM2178 551C2222.18 551 2258 586.817 2258 631C2258 675.183 2222.18 711 2178 711H1959V551H2178ZM299 711H80C35.8172 711 0 675.183 0 631C0 586.817 35.8172 551 80 551H299V711ZM631 0C675.183 0 711 35.8172 711 80V299H551V80C551 35.8172 586.817 0 631 0ZM963 0C1007.18 0 1043 35.8172 1043 80V299H883V80C883 35.8172 918.817 0 963 0ZM1295 0C1339.18 0 1375 35.8172 1375 80V299H1215V80C1215 35.8172 1250.82 0 1295 0ZM1627 0C1671.18 0 1707 35.8172 1707 80V299H1547V80C1547 35.8172 1582.82 0 1627 0Z" fill="#368DA5"/>
</g>
<defs>
<clipPath id="clip0_1_2">
<rect width="2258" height="2258" fill="white"/>
</clipPath>
</defs>
</svg>
